<svg width="76" height="18" viewBox="0 0 76 18" xmlns="http://www.w3.org/2000/svg" xmlns:xlink="http://www.w3.org/1999/xlink" xmlns:figma="http://www.figma.com/figma/ns"><title>Small-scale</title><desc>Created using Figma</desc><g transform="translate(0 -114)" figma:type="canvas"><mask id="a"><path d="M0 114h76v18H0v-18z" fill="#FFF"/></mask><g style="mix-blend-mode:normal" mask="url(#a)" figma:type="frame"><g style="mix-blend-mode:normal" figma:type="frame"><use xlink:href="#b" transform="translate(18 116)" fill="#735193" style="mix-blend-mode:normal" figma:type="rounded-rectangle"/><use xlink:href="#b" transform="translate(2 116)" fill="#E83151" style="mix-blend-mode:normal" figma:type="rounded-rectangle"/></g><g style="mix-blend-mode:normal" figma:type="text" transform="translate(34 114)"><use xlink:href="#c" fill="#E83151" style="mix-blend-mode:normal"/><use xlink:href="#d" fill="#735193" style="mix-blend-mode:normal"/><use xlink:href="#e" fill="#387780" style="mix-blend-mode:normal"/></g></g></g><defs><path id="b" d="M0 0h14v14H0V0z"/><path id="c" d="M29.784 8.848c.299-.27.514-.537.644-.798s.196-.593.196-.994c0-.523-.15-.943-.448-1.26-.298-.317-.751-.476-1.358-.476-.597 0-1.045.159-1.344.476-.299.308-.513.728-.644 1.26a.464.464 0 0 1-.14.238.334.334 0 0 1-.224.084h-.644a.335.335 0 0 1-.224-.084.334.334 0 0 1-.084-.224c.019-.476.159-.947.42-1.414.27-.467.653-.85 1.148-1.148.495-.299 1.073-.448 1.736-.448s1.227.135 1.694.406c.476.261.835.62 1.078 1.078.243.448.364.952.364 1.512 0 .588-.102 1.092-.308 1.512-.196.41-.537.83-1.022 1.26l-3.122 2.912h4.284c.103 0 .191.037.266.112a.363.363 0 0 1 .112.266v.504a.363.363 0 0 1-.112.266.363.363 0 0 1-.266.112h-6.034a.363.363 0 0 1-.266-.112.364.364 0 0 1-.112-.266v-.504c0-.103.019-.187.056-.252a1.52 1.52 0 0 1 .252-.28l4.102-3.738z"/><path id="d" d="M37.709 13.622a.363.363 0 0 1-.112.266.363.363 0 0 1-.266.112h-.574a.363.363 0 0 1-.266-.112.363.363 0 0 1-.112-.266V5.908L34.11 7.63a.353.353 0 0 1-.238.084.358.358 0 0 1-.294-.14l-.336-.434a.39.39 0 0 1-.084-.238c0-.121.05-.22.154-.294l2.996-2.296c.102-.075.252-.112.448-.112h.574c.102 0 .19.037.266.112a.363.363 0 0 1 .112.266v9.044z"/><path id="e" d="M2.427 10.276c.028.793.266 1.428.714 1.904.457.467 1.092.7 1.904.7.821 0 1.428-.177 1.82-.532.392-.355.653-.812.784-1.372a.384.384 0 0 1 .126-.224.39.39 0 0 1 .238-.084h.644c.084 0 .154.033.21.098a.265.265 0 0 1 .098.21c-.019.457-.168.933-.448 1.428-.28.485-.714.896-1.302 1.232-.579.336-1.302.504-2.17.504-.784 0-1.47-.163-2.058-.49a3.519 3.519 0 0 1-1.372-1.344c-.317-.579-.49-1.232-.518-1.96A40.7 40.7 0 0 1 1.083 9.1c0-.55.004-.966.014-1.246.028-.728.2-1.377.518-1.946A3.49 3.49 0 0 1 2.987 4.55c.588-.327 1.274-.49 2.058-.49.868 0 1.591.168 2.17.504.588.336 1.022.751 1.302 1.246.28.485.43.957.448 1.414a.308.308 0 0 1-.098.224.285.285 0 0 1-.21.084h-.644a.39.39 0 0 1-.238-.084.384.384 0 0 1-.126-.224c-.13-.56-.392-1.017-.784-1.372-.392-.355-.999-.532-1.82-.532-.812 0-1.447.238-1.904.714-.448.467-.686 1.097-.714 1.89-.01.28-.014.672-.014 1.176 0 .504.005.896.014 1.176zm8.148-3.178c0-.103.037-.191.112-.266a.364.364 0 0 1 .266-.112h.518c.102 0 .191.037.266.112a.363.363 0 0 1 .112.266v3.696c0 .71.158 1.246.476 1.61.326.355.798.532 1.414.532.597 0 1.06-.182 1.386-.546.336-.364.504-.896.504-1.596V7.098c0-.103.037-.191.112-.266a.364.364 0 0 1 .266-.112h.518c.102 0 .191.037.266.112a.363.363 0 0 1 .112.266v6.524a.363.363 0 0 1-.112.266.363.363 0 0 1-.266.112h-.518a.363.363 0 0 1-.266-.112.364.364 0 0 1-.112-.266v-.434c-.486.635-1.186.952-2.1.952-.896 0-1.615-.28-2.156-.84-.532-.56-.798-1.325-.798-2.296V7.098zm9.697 6.524a.363.363 0 0 1-.112.266.363.363 0 0 1-.266.112h-.518a.363.363 0 0 1-.266-.112.364.364 0 0 1-.112-.266V4.438c0-.103.038-.191.112-.266a.364.364 0 0 1 .266-.112h.518a.36.36 0 0 1 .266.112.363.363 0 0 1 .112.266v9.184zm3.377 0a.363.363 0 0 1-.112.266.363.363 0 0 1-.266.112h-.518a.363.363 0 0 1-.266-.112.363.363 0 0 1-.112-.266V4.438c0-.103.038-.191.112-.266a.363.363 0 0 1 .266-.112h.518c.103 0 .191.037.266.112a.363.363 0 0 1 .112.266v9.184z"/></defs></svg>