<svg width="328" height="90" viewBox="0 0 328 90" version="1.1" xmlns="http://www.w3.org/2000/svg" xmlns:xlink="http://www.w3.org/1999/xlink" xmlns:figma="http://www.figma.com/figma/ns">
<title>Large-scale</title>
<desc>Created using Figma</desc>
<g id="Canvas" figma:type="canvas">
<mask id="mask0_alpha" mask-type="alpha">
<path d="M 0 0L 328 0L 328 90L 0 90L 0 0Z" fill="#FFFFFF"/>
</mask>
<g id="Large-scale" style="mix-blend-mode:normal;" mask="url(#mask0_alpha)" figma:type="frame">
<path d="M 0 0L 328 0L 328 90L 0 90L 0 0Z" fill="#FFFFFF"/>
<g id="Large-Scale Logo" style="mix-blend-mode:normal;" figma:type="frame">
<mask id="mask1_alpha" mask-type="alpha">
<g id="Rectangle 2" style="mix-blend-mode:normal;" figma:type="rounded-rectangle">
<use xlink:href="#path0_fill" fill="#C4C4C4" style="mix-blend-mode:normal;"/>
</g>
</mask>
<g id="Row" style="mix-blend-mode:normal;" mask="url(#mask1_alpha)" figma:type="frame">
<g id="Rectangle" style="mix-blend-mode:normal;" figma:type="rounded-rectangle">
<use xlink:href="#path1_fill" transform="translate(17 6)" fill="#DBD4D3" style="mix-blend-mode:normal;"/>
</g>
<g id="Rectangle" style="mix-blend-mode:normal;" figma:type="rounded-rectangle">
<use xlink:href="#path1_fill" transform="translate(1 6)" fill="#DBD4D3" style="mix-blend-mode:normal;"/>
</g>
<g id="Rectangle" style="mix-blend-mode:normal;" figma:type="rounded-rectangle">
<use xlink:href="#path1_fill" transform="translate(49 6)" fill="#DBD4D3" style="mix-blend-mode:normal;"/>
</g>
<g id="Rectangle" style="mix-blend-mode:normal;" figma:type="rounded-rectangle">
<use xlink:href="#path1_fill" transform="translate(33 6)" fill="#DBD4D3" style="mix-blend-mode:normal;"/>
</g>
<g id="Rectangle" style="mix-blend-mode:normal;" figma:type="rounded-rectangle">
<use xlink:href="#path1_fill" transform="translate(81 6)" fill="#DBD4D3" style="mix-blend-mode:normal;"/>
</g>
<g id="Rectangle" style="mix-blend-mode:normal;" figma:type="rounded-rectangle">
<use xlink:href="#path1_fill" transform="translate(65 6)" fill="#DBD4D3" style="mix-blend-mode:normal;"/>
</g>
<g id="Rectangle" style="mix-blend-mode:normal;" figma:type="rounded-rectangle">
<use xlink:href="#path1_fill" transform="translate(113 6)" fill="#DBD4D3" style="mix-blend-mode:normal;"/>
</g>
<g id="Rectangle" style="mix-blend-mode:normal;" figma:type="rounded-rectangle">
<use xlink:href="#path1_fill" transform="translate(97 6)" fill="#DBD4D3" style="mix-blend-mode:normal;"/>
</g>
<g id="Rectangle" style="mix-blend-mode:normal;" figma:type="rounded-rectangle">
<use xlink:href="#path1_fill" transform="translate(145 6)" fill="#DBD4D3" style="mix-blend-mode:normal;"/>
</g>
<g id="Rectangle" style="mix-blend-mode:normal;" figma:type="rounded-rectangle">
<use xlink:href="#path1_fill" transform="translate(129 6)" fill="#DBD4D3" style="mix-blend-mode:normal;"/>
</g>
</g>
<g id="Row" style="mix-blend-mode:normal;" mask="url(#mask1_alpha)" figma:type="frame">
<g id="Rectangle" style="mix-blend-mode:normal;" figma:type="rounded-rectangle">
<use xlink:href="#path1_fill" transform="translate(9 22)" fill="#DBD4D3" style="mix-blend-mode:normal;"/>
</g>
<g id="Rectangle" style="mix-blend-mode:normal;" figma:type="rounded-rectangle">
<use xlink:href="#path1_fill" transform="translate(-7 22)" fill="#DBD4D3" style="mix-blend-mode:normal;"/>
</g>
<g id="Rectangle" style="mix-blend-mode:normal;" figma:type="rounded-rectangle">
<use xlink:href="#path1_fill" transform="translate(41 22)" fill="#DBD4D3" style="mix-blend-mode:normal;"/>
</g>
<g id="Rectangle" style="mix-blend-mode:normal;" figma:type="rounded-rectangle">
<use xlink:href="#path1_fill" transform="translate(25 22)" fill="#DBD4D3" style="mix-blend-mode:normal;"/>
</g>
<g id="Rectangle" style="mix-blend-mode:normal;" figma:type="rounded-rectangle">
<use xlink:href="#path1_fill" transform="translate(73 22)" fill="#DBD4D3" style="mix-blend-mode:normal;"/>
</g>
<g id="Rectangle" style="mix-blend-mode:normal;" figma:type="rounded-rectangle">
<use xlink:href="#path1_fill" transform="translate(57 22)" fill="#DBD4D3" style="mix-blend-mode:normal;"/>
</g>
<g id="Rectangle" style="mix-blend-mode:normal;" figma:type="rounded-rectangle">
<use xlink:href="#path1_fill" transform="translate(105 22)" fill="#DBD4D3" style="mix-blend-mode:normal;"/>
</g>
<g id="Rectangle" style="mix-blend-mode:normal;" figma:type="rounded-rectangle">
<use xlink:href="#path1_fill" transform="translate(89 22)" fill="#DBD4D3" style="mix-blend-mode:normal;"/>
</g>
<g id="Rectangle" style="mix-blend-mode:normal;" figma:type="rounded-rectangle">
<use xlink:href="#path1_fill" transform="translate(137 22)" fill="#DBD4D3" style="mix-blend-mode:normal;"/>
</g>
<g id="Rectangle" style="mix-blend-mode:normal;" figma:type="rounded-rectangle">
<use xlink:href="#path1_fill" transform="translate(153 22)" fill="#DBD4D3" style="mix-blend-mode:normal;"/>
</g>
<g id="Rectangle" style="mix-blend-mode:normal;" figma:type="rounded-rectangle">
<use xlink:href="#path1_fill" transform="translate(121 22)" fill="#DBD4D3" style="mix-blend-mode:normal;"/>
</g>
</g>
<g id="Row" style="mix-blend-mode:normal;" mask="url(#mask1_alpha)" figma:type="frame">
<g id="Rectangle" style="mix-blend-mode:normal;" figma:type="rounded-rectangle">
<use xlink:href="#path1_fill" transform="translate(9 -10)" fill="#DBD4D3" style="mix-blend-mode:normal;"/>
</g>
<g id="Rectangle" style="mix-blend-mode:normal;" figma:type="rounded-rectangle">
<use xlink:href="#path1_fill" transform="translate(-7 -10)" fill="#DBD4D3" style="mix-blend-mode:normal;"/>
</g>
<g id="Rectangle" style="mix-blend-mode:normal;" figma:type="rounded-rectangle">
<use xlink:href="#path1_fill" transform="translate(41 -10)" fill="#DBD4D3" style="mix-blend-mode:normal;"/>
</g>
<g id="Rectangle" style="mix-blend-mode:normal;" figma:type="rounded-rectangle">
<use xlink:href="#path1_fill" transform="translate(25 -10)" fill="#DBD4D3" style="mix-blend-mode:normal;"/>
</g>
<g id="Rectangle" style="mix-blend-mode:normal;" figma:type="rounded-rectangle">
<use xlink:href="#path1_fill" transform="translate(73 -10)" fill="#DBD4D3" style="mix-blend-mode:normal;"/>
</g>
<g id="Rectangle" style="mix-blend-mode:normal;" figma:type="rounded-rectangle">
<use xlink:href="#path1_fill" transform="translate(57 -10)" fill="#DBD4D3" style="mix-blend-mode:normal;"/>
</g>
<g id="Rectangle" style="mix-blend-mode:normal;" figma:type="rounded-rectangle">
<use xlink:href="#path1_fill" transform="translate(105 -10)" fill="#DBD4D3" style="mix-blend-mode:normal;"/>
</g>
<g id="Rectangle" style="mix-blend-mode:normal;" figma:type="rounded-rectangle">
<use xlink:href="#path1_fill" transform="translate(89 -10)" fill="#DBD4D3" style="mix-blend-mode:normal;"/>
</g>
<g id="Rectangle" style="mix-blend-mode:normal;" figma:type="rounded-rectangle">
<use xlink:href="#path1_fill" transform="translate(137 -10)" fill="#DBD4D3" style="mix-blend-mode:normal;"/>
</g>
<g id="Rectangle" style="mix-blend-mode:normal;" figma:type="rounded-rectangle">
<use xlink:href="#path1_fill" transform="translate(153 -10)" fill="#DBD4D3" style="mix-blend-mode:normal;"/>
</g>
<g id="Rectangle" style="mix-blend-mode:normal;" figma:type="rounded-rectangle">
<use xlink:href="#path1_fill" transform="translate(121 -10)" fill="#DBD4D3" style="mix-blend-mode:normal;"/>
</g>
</g>
<g id="Row" style="mix-blend-mode:normal;" mask="url(#mask1_alpha)" figma:type="frame">
<g id="Rectangle" style="mix-blend-mode:normal;" figma:type="rounded-rectangle">
<use xlink:href="#path1_fill" transform="translate(17 38)" fill="#DBD4D3" style="mix-blend-mode:normal;"/>
</g>
<g id="Rectangle" style="mix-blend-mode:normal;" figma:type="rounded-rectangle">
<use xlink:href="#path1_fill" transform="translate(1 38)" fill="#DBD4D3" style="mix-blend-mode:normal;"/>
</g>
<g id="Rectangle" style="mix-blend-mode:normal;" figma:type="rounded-rectangle">
<use xlink:href="#path1_fill" transform="translate(49 38)" fill="#DBD4D3" style="mix-blend-mode:normal;"/>
</g>
<g id="Rectangle" style="mix-blend-mode:normal;" figma:type="rounded-rectangle">
<use xlink:href="#path1_fill" transform="translate(33 38)" fill="#DBD4D3" style="mix-blend-mode:normal;"/>
</g>
<g id="Rectangle" style="mix-blend-mode:normal;" figma:type="rounded-rectangle">
<use xlink:href="#path1_fill" transform="translate(81 38)" fill="#735193" style="mix-blend-mode:normal;"/>
</g>
<g id="Rectangle" style="mix-blend-mode:normal;" figma:type="rounded-rectangle">
<use xlink:href="#path1_fill" transform="translate(65 38)" fill="#E83151" style="mix-blend-mode:normal;"/>
</g>
<g id="Rectangle" style="mix-blend-mode:normal;" figma:type="rounded-rectangle">
<use xlink:href="#path1_fill" transform="translate(113 38)" fill="#DBD4D3" style="mix-blend-mode:normal;"/>
</g>
<g id="Rectangle" style="mix-blend-mode:normal;" figma:type="rounded-rectangle">
<use xlink:href="#path1_fill" transform="translate(97 38)" fill="#DBD4D3" style="mix-blend-mode:normal;"/>
</g>
<g id="Rectangle" style="mix-blend-mode:normal;" figma:type="rounded-rectangle">
<use xlink:href="#path1_fill" transform="translate(145 38)" fill="#DBD4D3" style="mix-blend-mode:normal;"/>
</g>
<g id="Rectangle" style="mix-blend-mode:normal;" figma:type="rounded-rectangle">
<use xlink:href="#path1_fill" transform="translate(129 38)" fill="#DBD4D3" style="mix-blend-mode:normal;"/>
</g>
</g>
<g id="Row" style="mix-blend-mode:normal;" mask="url(#mask1_alpha)" figma:type="frame">
<g id="Rectangle" style="mix-blend-mode:normal;" figma:type="rounded-rectangle">
<use xlink:href="#path1_fill" transform="translate(9 54)" fill="#DBD4D3" style="mix-blend-mode:normal;"/>
</g>
<g id="Rectangle" style="mix-blend-mode:normal;" figma:type="rounded-rectangle">
<use xlink:href="#path1_fill" transform="translate(-7 54)" fill="#DBD4D3" style="mix-blend-mode:normal;"/>
</g>
<g id="Rectangle" style="mix-blend-mode:normal;" figma:type="rounded-rectangle">
<use xlink:href="#path1_fill" transform="translate(41 54)" fill="#DBD4D3" style="mix-blend-mode:normal;"/>
</g>
<g id="Rectangle" style="mix-blend-mode:normal;" figma:type="rounded-rectangle">
<use xlink:href="#path1_fill" transform="translate(25 54)" fill="#DBD4D3" style="mix-blend-mode:normal;"/>
</g>
<g id="Rectangle" style="mix-blend-mode:normal;" figma:type="rounded-rectangle">
<use xlink:href="#path1_fill" transform="translate(73 54)" fill="#DBD4D3" style="mix-blend-mode:normal;"/>
</g>
<g id="Rectangle" style="mix-blend-mode:normal;" figma:type="rounded-rectangle">
<use xlink:href="#path1_fill" transform="translate(57 54)" fill="#DBD4D3" style="mix-blend-mode:normal;"/>
</g>
<g id="Rectangle" style="mix-blend-mode:normal;" figma:type="rounded-rectangle">
<use xlink:href="#path1_fill" transform="translate(105 54)" fill="#DBD4D3" style="mix-blend-mode:normal;"/>
</g>
<g id="Rectangle" style="mix-blend-mode:normal;" figma:type="rounded-rectangle">
<use xlink:href="#path1_fill" transform="translate(89 54)" fill="#DBD4D3" style="mix-blend-mode:normal;"/>
</g>
<g id="Rectangle" style="mix-blend-mode:normal;" figma:type="rounded-rectangle">
<use xlink:href="#path1_fill" transform="translate(137 54)" fill="#DBD4D3" style="mix-blend-mode:normal;"/>
</g>
<g id="Rectangle" style="mix-blend-mode:normal;" figma:type="rounded-rectangle">
<use xlink:href="#path1_fill" transform="translate(153 54)" fill="#DBD4D3" style="mix-blend-mode:normal;"/>
</g>
<g id="Rectangle" style="mix-blend-mode:normal;" figma:type="rounded-rectangle">
<use xlink:href="#path1_fill" transform="translate(121 54)" fill="#DBD4D3" style="mix-blend-mode:normal;"/>
</g>
</g>
<g id="Row" style="mix-blend-mode:normal;" mask="url(#mask1_alpha)" figma:type="frame">
<g id="Rectangle" style="mix-blend-mode:normal;" figma:type="rounded-rectangle">
<use xlink:href="#path1_fill" transform="translate(17 70)" fill="#DBD4D3" style="mix-blend-mode:normal;"/>
</g>
<g id="Rectangle" style="mix-blend-mode:normal;" figma:type="rounded-rectangle">
<use xlink:href="#path1_fill" transform="translate(1 70)" fill="#DBD4D3" style="mix-blend-mode:normal;"/>
</g>
<g id="Rectangle" style="mix-blend-mode:normal;" figma:type="rounded-rectangle">
<use xlink:href="#path1_fill" transform="translate(49 70)" fill="#DBD4D3" style="mix-blend-mode:normal;"/>
</g>
<g id="Rectangle" style="mix-blend-mode:normal;" figma:type="rounded-rectangle">
<use xlink:href="#path1_fill" transform="translate(33 70)" fill="#DBD4D3" style="mix-blend-mode:normal;"/>
</g>
<g id="Rectangle" style="mix-blend-mode:normal;" figma:type="rounded-rectangle">
<use xlink:href="#path1_fill" transform="translate(81 70)" fill="#DBD4D3" style="mix-blend-mode:normal;"/>
</g>
<g id="Rectangle" style="mix-blend-mode:normal;" figma:type="rounded-rectangle">
<use xlink:href="#path1_fill" transform="translate(65 70)" fill="#DBD4D3" style="mix-blend-mode:normal;"/>
</g>
<g id="Rectangle" style="mix-blend-mode:normal;" figma:type="rounded-rectangle">
<use xlink:href="#path1_fill" transform="translate(113 70)" fill="#DBD4D3" style="mix-blend-mode:normal;"/>
</g>
<g id="Rectangle" style="mix-blend-mode:normal;" figma:type="rounded-rectangle">
<use xlink:href="#path1_fill" transform="translate(97 70)" fill="#DBD4D3" style="mix-blend-mode:normal;"/>
</g>
<g id="Rectangle" style="mix-blend-mode:normal;" figma:type="rounded-rectangle">
<use xlink:href="#path1_fill" transform="translate(145 70)" fill="#DBD4D3" style="mix-blend-mode:normal;"/>
</g>
<g id="Rectangle" style="mix-blend-mode:normal;" figma:type="rounded-rectangle">
<use xlink:href="#path1_fill" transform="translate(129 70)" fill="#DBD4D3" style="mix-blend-mode:normal;"/>
</g>
</g>
<g id="Row" style="mix-blend-mode:normal;" mask="url(#mask1_alpha)" figma:type="frame">
<g id="Rectangle" style="mix-blend-mode:normal;" figma:type="rounded-rectangle">
<use xlink:href="#path1_fill" transform="translate(9 86)" fill="#DBD4D3" style="mix-blend-mode:normal;"/>
</g>
<g id="Rectangle" style="mix-blend-mode:normal;" figma:type="rounded-rectangle">
<use xlink:href="#path1_fill" transform="translate(-7 86)" fill="#DBD4D3" style="mix-blend-mode:normal;"/>
</g>
<g id="Rectangle" style="mix-blend-mode:normal;" figma:type="rounded-rectangle">
<use xlink:href="#path1_fill" transform="translate(41 86)" fill="#DBD4D3" style="mix-blend-mode:normal;"/>
</g>
<g id="Rectangle" style="mix-blend-mode:normal;" figma:type="rounded-rectangle">
<use xlink:href="#path1_fill" transform="translate(25 86)" fill="#DBD4D3" style="mix-blend-mode:normal;"/>
</g>
<g id="Rectangle" style="mix-blend-mode:normal;" figma:type="rounded-rectangle">
<use xlink:href="#path1_fill" transform="translate(73 86)" fill="#DBD4D3" style="mix-blend-mode:normal;"/>
</g>
<g id="Rectangle" style="mix-blend-mode:normal;" figma:type="rounded-rectangle">
<use xlink:href="#path1_fill" transform="translate(57 86)" fill="#DBD4D3" style="mix-blend-mode:normal;"/>
</g>
<g id="Rectangle" style="mix-blend-mode:normal;" figma:type="rounded-rectangle">
<use xlink:href="#path1_fill" transform="translate(105 86)" fill="#DBD4D3" style="mix-blend-mode:normal;"/>
</g>
<g id="Rectangle" style="mix-blend-mode:normal;" figma:type="rounded-rectangle">
<use xlink:href="#path1_fill" transform="translate(89 86)" fill="#DBD4D3" style="mix-blend-mode:normal;"/>
</g>
<g id="Rectangle" style="mix-blend-mode:normal;" figma:type="rounded-rectangle">
<use xlink:href="#path1_fill" transform="translate(137 86)" fill="#DBD4D3" style="mix-blend-mode:normal;"/>
</g>
<g id="Rectangle" style="mix-blend-mode:normal;" figma:type="rounded-rectangle">
<use xlink:href="#path1_fill" transform="translate(153 86)" fill="#DBD4D3" style="mix-blend-mode:normal;"/>
</g>
<g id="Rectangle" style="mix-blend-mode:normal;" figma:type="rounded-rectangle">
<use xlink:href="#path1_fill" transform="translate(121 86)" fill="#DBD4D3" style="mix-blend-mode:normal;"/>
</g>
</g>
</g>
<g id="Cull21" style="mix-blend-mode:normal;" figma:type="text">
<use xlink:href="#path2_fill" transform="translate(195 23.5)" fill="#E83151" style="mix-blend-mode:normal;"/>
<use xlink:href="#path3_fill" transform="translate(195 23.5)" fill="#735193" style="mix-blend-mode:normal;"/>
<use xlink:href="#path4_fill" transform="translate(195 23.5)" fill="#387780" style="mix-blend-mode:normal;"/>
</g>
</g>
</g>
<defs>
<path id="path0_fill" d="M 0 0L 160 0L 160 90L 0 90L 0 0Z"/>
<path id="path1_fill" d="M 0 0L 14 0L 14 14L 0 14L 0 0Z"/>
<path id="path2_fill" d="M 75.9274 20.752C 76.6954 20.056 77.2474 19.372 77.5834 18.7C 77.9194 18.028 78.0874 17.176 78.0874 16.144C 78.0874 14.8 77.7034 13.72 76.9354 12.904C 76.1674 12.088 75.0034 11.68 73.4434 11.68C 71.9074 11.68 70.7554 12.088 69.9874 12.904C 69.2194 13.696 68.6674 14.776 68.3314 16.144C 68.2594 16.408 68.1394 16.612 67.9714 16.756C 67.8034 16.9 67.6114 16.972 67.3954 16.972L 65.7394 16.972C 65.5234 16.972 65.3314 16.9 65.1634 16.756C 65.0194 16.588 64.9474 16.396 64.9474 16.18C 64.9954 14.956 65.3554 13.744 66.0274 12.544C 66.7234 11.344 67.7074 10.36 68.9794 9.592C 70.2514 8.824 71.7394 8.44 73.4434 8.44C 75.1474 8.44 76.5994 8.788 77.7994 9.484C 79.0234 10.156 79.9474 11.08 80.5714 12.256C 81.1954 13.408 81.5074 14.704 81.5074 16.144C 81.5074 17.656 81.2434 18.952 80.7154 20.032C 80.2114 21.088 79.3354 22.168 78.0874 23.272L 70.0594 30.76L 81.0754 30.76C 81.3394 30.76 81.5674 30.856 81.7594 31.048C 81.9514 31.24 82.0474 31.468 82.0474 31.732L 82.0474 33.028C 82.0474 33.292 81.9514 33.52 81.7594 33.712C 81.5674 33.904 81.3394 34 81.0754 34L 65.5594 34C 65.2954 34 65.0674 33.904 64.8754 33.712C 64.6834 33.52 64.5874 33.292 64.5874 33.028L 64.5874 31.732C 64.5874 31.468 64.6354 31.252 64.7314 31.084C 64.8514 30.892 65.0674 30.652 65.3794 30.364L 75.9274 20.752Z"/>
<path id="path3_fill" d="M 96.3045 33.028C 96.3045 33.292 96.2085 33.52 96.0165 33.712C 95.8245 33.904 95.5965 34 95.3325 34L 93.8565 34C 93.5925 34 93.3645 33.904 93.1725 33.712C 92.9805 33.52 92.8845 33.292 92.8845 33.028L 92.8845 13.192L 87.0525 17.62C 86.8845 17.764 86.6805 17.836 86.4405 17.836C 86.1285 17.836 85.8765 17.716 85.6845 17.476L 84.8205 16.36C 84.6765 16.168 84.6045 15.964 84.6045 15.748C 84.6045 15.436 84.7365 15.184 85.0005 14.992L 92.7045 9.088C 92.9685 8.896 93.3525 8.8 93.8565 8.8L 95.3325 8.8C 95.5965 8.8 95.8245 8.896 96.0165 9.088C 96.2085 9.28 96.3045 9.508 96.3045 9.772L 96.3045 33.028Z"/>
<path id="path4_fill" d="M 5.58 24.424C 5.652 26.464 6.264 28.096 7.416 29.32C 8.592 30.52 10.224 31.12 12.312 31.12C 14.424 31.12 15.984 30.664 16.992 29.752C 18 28.84 18.672 27.664 19.008 26.224C 19.056 25.984 19.164 25.792 19.332 25.648C 19.524 25.504 19.728 25.432 19.944 25.432L 21.6 25.432C 21.816 25.432 21.996 25.516 22.14 25.684C 22.308 25.828 22.392 26.008 22.392 26.224C 22.344 27.4 21.96 28.624 21.24 29.896C 20.52 31.144 19.404 32.2 17.892 33.064C 16.404 33.928 14.544 34.36 12.312 34.36C 10.296 34.36 8.532 33.94 7.02 33.1C 5.508 32.26 4.332 31.108 3.492 29.644C 2.676 28.156 2.232 26.476 2.16 24.604C 2.136 23.884 2.124 22.816 2.124 21.4C 2.124 19.984 2.136 18.916 2.16 18.196C 2.232 16.324 2.676 14.656 3.492 13.192C 4.332 11.704 5.508 10.54 7.02 9.7C 8.532 8.86 10.296 8.44 12.312 8.44C 14.544 8.44 16.404 8.872 17.892 9.736C 19.404 10.6 20.52 11.668 21.24 12.94C 21.96 14.188 22.344 15.4 22.392 16.576C 22.392 16.792 22.308 16.984 22.14 17.152C 21.996 17.296 21.816 17.368 21.6 17.368L 19.944 17.368C 19.728 17.368 19.524 17.296 19.332 17.152C 19.164 17.008 19.056 16.816 19.008 16.576C 18.672 15.136 18 13.96 16.992 13.048C 15.984 12.136 14.424 11.68 12.312 11.68C 10.224 11.68 8.592 12.292 7.416 13.516C 6.264 14.716 5.652 16.336 5.58 18.376C 5.556 19.096 5.544 20.104 5.544 21.4C 5.544 22.696 5.556 23.704 5.58 24.424ZM 26.5317 16.252C 26.5317 15.988 26.6277 15.76 26.8197 15.568C 27.0117 15.376 27.2397 15.28 27.5037 15.28L 28.8357 15.28C 29.0997 15.28 29.3277 15.376 29.5197 15.568C 29.7117 15.76 29.8077 15.988 29.8077 16.252L 29.8077 25.756C 29.8077 27.58 30.2157 28.96 31.0317 29.896C 31.8717 30.808 33.0837 31.264 34.6677 31.264C 36.2037 31.264 37.3917 30.796 38.2317 29.86C 39.0957 28.924 39.5277 27.556 39.5277 25.756L 39.5277 16.252C 39.5277 15.988 39.6237 15.76 39.8157 15.568C 40.0077 15.376 40.2357 15.28 40.4997 15.28L 41.8317 15.28C 42.0957 15.28 42.3237 15.376 42.5157 15.568C 42.7077 15.76 42.8037 15.988 42.8037 16.252L 42.8037 33.028C 42.8037 33.292 42.7077 33.52 42.5157 33.712C 42.3237 33.904 42.0957 34 41.8317 34L 40.4997 34C 40.2357 34 40.0077 33.904 39.8157 33.712C 39.6237 33.52 39.5277 33.292 39.5277 33.028L 39.5277 31.912C 38.2797 33.544 36.4797 34.36 34.1277 34.36C 31.8237 34.36 29.9757 33.64 28.5837 32.2C 27.2157 30.76 26.5317 28.792 26.5317 26.296L 26.5317 16.252ZM 51.4682 33.028C 51.4682 33.292 51.3722 33.52 51.1802 33.712C 50.9882 33.904 50.7602 34 50.4962 34L 49.1642 34C 48.9002 34 48.6722 33.904 48.4802 33.712C 48.2882 33.52 48.1922 33.292 48.1922 33.028L 48.1922 9.412C 48.1922 9.148 48.2882 8.92 48.4802 8.728C 48.6722 8.536 48.9002 8.44 49.1642 8.44L 50.4962 8.44C 50.7602 8.44 50.9882 8.536 51.1802 8.728C 51.3722 8.92 51.4682 9.148 51.4682 9.412L 51.4682 33.028ZM 60.1518 33.028C 60.1518 33.292 60.0558 33.52 59.8638 33.712C 59.6718 33.904 59.4438 34 59.1798 34L 57.8478 34C 57.5838 34 57.3558 33.904 57.1638 33.712C 56.9718 33.52 56.8758 33.292 56.8758 33.028L 56.8758 9.412C 56.8758 9.148 56.9718 8.92 57.1638 8.728C 57.3558 8.536 57.5838 8.44 57.8478 8.44L 59.1798 8.44C 59.4438 8.44 59.6718 8.536 59.8638 8.728C 60.0558 8.92 60.1518 9.148 60.1518 9.412L 60.1518 33.028Z"/>
</defs>
</svg>
