<svg width="328" height="90" viewBox="0 0 328 90" xmlns="http://www.w3.org/2000/svg" xmlns:xlink="http://www.w3.org/1999/xlink" xmlns:figma="http://www.figma.com/figma/ns"><title>Large-scale</title><desc>Created using Figma</desc><g figma:type="canvas"><mask id="a"><path d="M0 0h328v90H0V0z" fill="#FFF"/></mask><g style="mix-blend-mode:normal" mask="url(#a)" figma:type="frame"><g style="mix-blend-mode:normal" figma:type="frame"><mask id="c"><use xlink:href="#b" fill="#C4C4C4" style="mix-blend-mode:normal" figma:type="rounded-rectangle"/></mask><g style="mix-blend-mode:normal" mask="url(#c)" figma:type="frame" fill="#DBD4D3"><use xlink:href="#d" transform="translate(17 6)" style="mix-blend-mode:normal" figma:type="rounded-rectangle"/><use xlink:href="#d" transform="translate(1 6)" style="mix-blend-mode:normal" figma:type="rounded-rectangle"/><use xlink:href="#d" transform="translate(49 6)" style="mix-blend-mode:normal" figma:type="rounded-rectangle"/><use xlink:href="#d" transform="translate(33 6)" style="mix-blend-mode:normal" figma:type="rounded-rectangle"/><use xlink:href="#d" transform="translate(81 6)" style="mix-blend-mode:normal" figma:type="rounded-rectangle"/><use xlink:href="#d" transform="translate(65 6)" style="mix-blend-mode:normal" figma:type="rounded-rectangle"/><use xlink:href="#d" transform="translate(113 6)" style="mix-blend-mode:normal" figma:type="rounded-rectangle"/><use xlink:href="#d" transform="translate(97 6)" style="mix-blend-mode:normal" figma:type="rounded-rectangle"/><use xlink:href="#d" transform="translate(145 6)" style="mix-blend-mode:normal" figma:type="rounded-rectangle"/><use xlink:href="#d" transform="translate(129 6)" style="mix-blend-mode:normal" figma:type="rounded-rectangle"/></g><g style="mix-blend-mode:normal" mask="url(#c)" figma:type="frame" fill="#DBD4D3"><use xlink:href="#d" transform="translate(9 22)" style="mix-blend-mode:normal" figma:type="rounded-rectangle"/><use xlink:href="#d" transform="translate(-7 22)" style="mix-blend-mode:normal" figma:type="rounded-rectangle"/><use xlink:href="#d" transform="translate(41 22)" style="mix-blend-mode:normal" figma:type="rounded-rectangle"/><use xlink:href="#d" transform="translate(25 22)" style="mix-blend-mode:normal" figma:type="rounded-rectangle"/><use xlink:href="#d" transform="translate(73 22)" style="mix-blend-mode:normal" figma:type="rounded-rectangle"/><use xlink:href="#d" transform="translate(57 22)" style="mix-blend-mode:normal" figma:type="rounded-rectangle"/><use xlink:href="#d" transform="translate(105 22)" style="mix-blend-mode:normal" figma:type="rounded-rectangle"/><use xlink:href="#d" transform="translate(89 22)" style="mix-blend-mode:normal" figma:type="rounded-rectangle"/><use xlink:href="#d" transform="translate(137 22)" style="mix-blend-mode:normal" figma:type="rounded-rectangle"/><use xlink:href="#d" transform="translate(153 22)" style="mix-blend-mode:normal" figma:type="rounded-rectangle"/><use xlink:href="#d" transform="translate(121 22)" style="mix-blend-mode:normal" figma:type="rounded-rectangle"/></g><g style="mix-blend-mode:normal" mask="url(#c)" figma:type="frame" fill="#DBD4D3"><use xlink:href="#d" transform="translate(9 -10)" style="mix-blend-mode:normal" figma:type="rounded-rectangle"/><use xlink:href="#d" transform="translate(-7 -10)" style="mix-blend-mode:normal" figma:type="rounded-rectangle"/><use xlink:href="#d" transform="translate(41 -10)" style="mix-blend-mode:normal" figma:type="rounded-rectangle"/><use xlink:href="#d" transform="translate(25 -10)" style="mix-blend-mode:normal" figma:type="rounded-rectangle"/><use xlink:href="#d" transform="translate(73 -10)" style="mix-blend-mode:normal" figma:type="rounded-rectangle"/><use xlink:href="#d" transform="translate(57 -10)" style="mix-blend-mode:normal" figma:type="rounded-rectangle"/><use xlink:href="#d" transform="translate(105 -10)" style="mix-blend-mode:normal" figma:type="rounded-rectangle"/><use xlink:href="#d" transform="translate(89 -10)" style="mix-blend-mode:normal" figma:type="rounded-rectangle"/><use xlink:href="#d" transform="translate(137 -10)" style="mix-blend-mode:normal" figma:type="rounded-rectangle"/><use xlink:href="#d" transform="translate(153 -10)" style="mix-blend-mode:normal" figma:type="rounded-rectangle"/><use xlink:href="#d" transform="translate(121 -10)" style="mix-blend-mode:normal" figma:type="rounded-rectangle"/></g><g style="mix-blend-mode:normal" mask="url(#c)" figma:type="frame"><use xlink:href="#d" transform="translate(17 38)" fill="#DBD4D3" style="mix-blend-mode:normal" figma:type="rounded-rectangle"/><use xlink:href="#d" transform="translate(1 38)" fill="#DBD4D3" style="mix-blend-mode:normal" figma:type="rounded-rectangle"/><use xlink:href="#d" transform="translate(49 38)" fill="#DBD4D3" style="mix-blend-mode:normal" figma:type="rounded-rectangle"/><use xlink:href="#d" transform="translate(33 38)" fill="#DBD4D3" style="mix-blend-mode:normal" figma:type="rounded-rectangle"/><use xlink:href="#d" transform="translate(81 38)" fill="#735193" style="mix-blend-mode:normal" figma:type="rounded-rectangle"/><use xlink:href="#d" transform="translate(65 38)" fill="#E83151" style="mix-blend-mode:normal" figma:type="rounded-rectangle"/><use xlink:href="#d" transform="translate(113 38)" fill="#DBD4D3" style="mix-blend-mode:normal" figma:type="rounded-rectangle"/><use xlink:href="#d" transform="translate(97 38)" fill="#DBD4D3" style="mix-blend-mode:normal" figma:type="rounded-rectangle"/><use xlink:href="#d" transform="translate(145 38)" fill="#DBD4D3" style="mix-blend-mode:normal" figma:type="rounded-rectangle"/><use xlink:href="#d" transform="translate(129 38)" fill="#DBD4D3" style="mix-blend-mode:normal" figma:type="rounded-rectangle"/></g><g style="mix-blend-mode:normal" mask="url(#c)" figma:type="frame" fill="#DBD4D3"><use xlink:href="#d" transform="translate(9 54)" style="mix-blend-mode:normal" figma:type="rounded-rectangle"/><use xlink:href="#d" transform="translate(-7 54)" style="mix-blend-mode:normal" figma:type="rounded-rectangle"/><use xlink:href="#d" transform="translate(41 54)" style="mix-blend-mode:normal" figma:type="rounded-rectangle"/><use xlink:href="#d" transform="translate(25 54)" style="mix-blend-mode:normal" figma:type="rounded-rectangle"/><use xlink:href="#d" transform="translate(73 54)" style="mix-blend-mode:normal" figma:type="rounded-rectangle"/><use xlink:href="#d" transform="translate(57 54)" style="mix-blend-mode:normal" figma:type="rounded-rectangle"/><use xlink:href="#d" transform="translate(105 54)" style="mix-blend-mode:normal" figma:type="rounded-rectangle"/><use xlink:href="#d" transform="translate(89 54)" style="mix-blend-mode:normal" figma:type="rounded-rectangle"/><use xlink:href="#d" transform="translate(137 54)" style="mix-blend-mode:normal" figma:type="rounded-rectangle"/><use xlink:href="#d" transform="translate(153 54)" style="mix-blend-mode:normal" figma:type="rounded-rectangle"/><use xlink:href="#d" transform="translate(121 54)" style="mix-blend-mode:normal" figma:type="rounded-rectangle"/></g><g style="mix-blend-mode:normal" mask="url(#c)" figma:type="frame" fill="#DBD4D3"><use xlink:href="#d" transform="translate(17 70)" style="mix-blend-mode:normal" figma:type="rounded-rectangle"/><use xlink:href="#d" transform="translate(1 70)" style="mix-blend-mode:normal" figma:type="rounded-rectangle"/><use xlink:href="#d" transform="translate(49 70)" style="mix-blend-mode:normal" figma:type="rounded-rectangle"/><use xlink:href="#d" transform="translate(33 70)" style="mix-blend-mode:normal" figma:type="rounded-rectangle"/><use xlink:href="#d" transform="translate(81 70)" style="mix-blend-mode:normal" figma:type="rounded-rectangle"/><use xlink:href="#d" transform="translate(65 70)" style="mix-blend-mode:normal" figma:type="rounded-rectangle"/><use xlink:href="#d" transform="translate(113 70)" style="mix-blend-mode:normal" figma:type="rounded-rectangle"/><use xlink:href="#d" transform="translate(97 70)" style="mix-blend-mode:normal" figma:type="rounded-rectangle"/><use xlink:href="#d" transform="translate(145 70)" style="mix-blend-mode:normal" figma:type="rounded-rectangle"/><use xlink:href="#d" transform="translate(129 70)" style="mix-blend-mode:normal" figma:type="rounded-rectangle"/></g><g style="mix-blend-mode:normal" mask="url(#c)" figma:type="frame" fill="#DBD4D3"><use xlink:href="#d" transform="translate(9 86)" style="mix-blend-mode:normal" figma:type="rounded-rectangle"/><use xlink:href="#d" transform="translate(-7 86)" style="mix-blend-mode:normal" figma:type="rounded-rectangle"/><use xlink:href="#d" transform="translate(41 86)" style="mix-blend-mode:normal" figma:type="rounded-rectangle"/><use xlink:href="#d" transform="translate(25 86)" style="mix-blend-mode:normal" figma:type="rounded-rectangle"/><use xlink:href="#d" transform="translate(73 86)" style="mix-blend-mode:normal" figma:type="rounded-rectangle"/><use xlink:href="#d" transform="translate(57 86)" style="mix-blend-mode:normal" figma:type="rounded-rectangle"/><use xlink:href="#d" transform="translate(105 86)" style="mix-blend-mode:normal" figma:type="rounded-rectangle"/><use xlink:href="#d" transform="translate(89 86)" style="mix-blend-mode:normal" figma:type="rounded-rectangle"/><use xlink:href="#d" transform="translate(137 86)" style="mix-blend-mode:normal" figma:type="rounded-rectangle"/><use xlink:href="#d" transform="translate(153 86)" style="mix-blend-mode:normal" figma:type="rounded-rectangle"/><use xlink:href="#d" transform="translate(121 86)" style="mix-blend-mode:normal" figma:type="rounded-rectangle"/></g></g><g style="mix-blend-mode:normal" figma:type="text" transform="translate(195 23.5)"><use xlink:href="#e" fill="#E83151" style="mix-blend-mode:normal"/><use xlink:href="#f" fill="#735193" style="mix-blend-mode:normal"/><use xlink:href="#g" fill="#387780" style="mix-blend-mode:normal"/></g></g></g><defs><path id="b" d="M0 0h160v90H0V0z"/><path id="d" d="M0 0h14v14H0V0z"/><path id="e" d="M75.927 20.752c.768-.696 1.32-1.38 1.656-2.052.336-.672.504-1.524.504-2.556 0-1.344-.384-2.424-1.152-3.24-.768-.816-1.932-1.224-3.492-1.224-1.536 0-2.688.408-3.456 1.224-.768.792-1.32 1.872-1.656 3.24-.072.264-.192.468-.36.612a.86.86 0 0 1-.576.216H65.74a.86.86 0 0 1-.576-.216.86.86 0 0 1-.216-.576c.048-1.224.408-2.436 1.08-3.636.696-1.2 1.68-2.184 2.952-2.952 1.272-.768 2.76-1.152 4.464-1.152 1.704 0 3.156.348 4.356 1.044 1.224.672 2.148 1.596 2.772 2.772.624 1.152.936 2.448.936 3.888 0 1.512-.264 2.808-.792 3.888-.504 1.056-1.38 2.136-2.628 3.24L70.06 30.76h11.016c.264 0 .492.096.684.288.192.192.288.42.288.684v1.296a.934.934 0 0 1-.288.684.934.934 0 0 1-.684.288H65.56a.934.934 0 0 1-.684-.288.934.934 0 0 1-.288-.684v-1.296c0-.264.048-.48.144-.648.12-.192.336-.432.648-.72l10.548-9.612z"/><path id="f" d="M96.305 33.028a.934.934 0 0 1-.289.684.934.934 0 0 1-.684.288h-1.475a.934.934 0 0 1-.684-.288.934.934 0 0 1-.288-.684V13.192l-5.833 4.428a.908.908 0 0 1-.612.216.921.921 0 0 1-.755-.36l-.865-1.116a1.003 1.003 0 0 1-.215-.612c0-.312.132-.564.395-.756l7.704-5.904c.265-.192.649-.288 1.153-.288h1.475c.265 0 .493.096.684.288.192.192.288.42.288.684v23.256z"/><path id="g" d="M5.58 24.424c.072 2.04.684 3.672 1.836 4.896 1.176 1.2 2.808 1.8 4.896 1.8 2.112 0 3.672-.456 4.68-1.368 1.008-.912 1.68-2.088 2.016-3.528a.988.988 0 0 1 .324-.576c.192-.144.396-.216.612-.216H21.6c.216 0 .396.084.54.252a.682.682 0 0 1 .252.54c-.048 1.176-.432 2.4-1.152 3.672-.72 1.248-1.836 2.304-3.348 3.168-1.488.864-3.348 1.296-5.58 1.296-2.016 0-3.78-.42-5.292-1.26-1.512-.84-2.688-1.992-3.528-3.456-.816-1.488-1.26-3.168-1.332-5.04-.024-.72-.036-1.788-.036-3.204 0-1.416.012-2.484.036-3.204.072-1.872.516-3.54 1.332-5.004A8.976 8.976 0 0 1 7.02 9.7c1.512-.84 3.276-1.26 5.292-1.26 2.232 0 4.092.432 5.58 1.296 1.512.864 2.628 1.932 3.348 3.204.72 1.248 1.104 2.46 1.152 3.636a.793.793 0 0 1-.252.576.733.733 0 0 1-.54.216h-1.656c-.216 0-.42-.072-.612-.216a.988.988 0 0 1-.324-.576c-.336-1.44-1.008-2.616-2.016-3.528-1.008-.912-2.568-1.368-4.68-1.368-2.088 0-3.72.612-4.896 1.836-1.152 1.2-1.764 2.82-1.836 4.86-.024.72-.036 1.728-.036 3.024s.012 2.304.036 3.024zm20.952-8.172c0-.264.096-.492.288-.684a.934.934 0 0 1 .684-.288h1.332c.264 0 .492.096.684.288.192.192.288.42.288.684v9.504c0 1.824.408 3.204 1.224 4.14.84.912 2.052 1.368 3.636 1.368 1.536 0 2.724-.468 3.564-1.404.864-.936 1.296-2.304 1.296-4.104v-9.504c0-.264.096-.492.288-.684a.934.934 0 0 1 .684-.288h1.332c.264 0 .492.096.684.288.192.192.288.42.288.684v16.776a.934.934 0 0 1-.288.684.934.934 0 0 1-.684.288H40.5a.934.934 0 0 1-.684-.288.934.934 0 0 1-.288-.684v-1.116c-1.248 1.632-3.048 2.448-5.4 2.448-2.304 0-4.152-.72-5.544-2.16-1.368-1.44-2.052-3.408-2.052-5.904V16.252zm24.936 16.776a.934.934 0 0 1-.288.684.934.934 0 0 1-.684.288h-1.332a.934.934 0 0 1-.684-.288.934.934 0 0 1-.288-.684V9.412c0-.264.096-.492.288-.684a.934.934 0 0 1 .684-.288h1.332c.264 0 .492.096.684.288.192.192.288.42.288.684v23.616zm8.684 0a.934.934 0 0 1-.288.684.934.934 0 0 1-.684.288h-1.332a.934.934 0 0 1-.684-.288.934.934 0 0 1-.288-.684V9.412c0-.264.096-.492.288-.684a.934.934 0 0 1 .684-.288h1.332c.264 0 .492.096.684.288.192.192.288.42.288.684v23.616z"/></defs></svg>